<svg width="8" height="16" viewBox="0 0 8 16" fill="none" xmlns="http://www.w3.org/2000/svg">
<path d="M3.25 0.625L3.25 13.8612L1.068 11.6686C0.824497 11.4239 0.428779 11.423 0.184123 11.6665C-0.0605647 11.91 -0.0614707 12.3057 0.181998 12.5504L3.432 15.8161C3.43218 15.8163 3.4324 15.8165 3.43259 15.8167C3.67609 16.0607 4.07309 16.0615 4.3174 15.8167C4.31759 15.8165 4.31781 15.8164 4.31799 15.8162L7.56799 12.5504C7.81143 12.3058 7.81059 11.9101 7.56587 11.6665C7.32121 11.423 6.92549 11.424 6.68199 11.6686L4.49999 13.8612L4.49999 0.625C4.49999 0.279812 4.22018 0 3.87499 0C3.52981 0 3.25 0.279812 3.25 0.625Z" fill="#1B58B1"/>
</svg>
