<svg width="30" height="30" fill="none" xmlns="http://www.w3.org/2000/svg">
	<path d="M3.6 0C1.67 0 .1 1.6.1 3.57a3.54 3.54 0 003.5 3.57c1.94 0 3.5-1.6 3.5-3.57A3.54 3.54 0 003.6 0zM14.95 0c-1.93 0-3.5 1.6-3.5 3.57a3.54 3.54 0 003.5 3.57c1.94 0 3.51-1.6 3.51-3.57A3.54 3.54 0 0014.96 0zM26.5 7.14c1.93 0 3.5-1.6 3.5-3.57A3.54 3.54 0 0026.5 0c-1.94 0-3.52 1.6-3.52 3.57a3.54 3.54 0 003.51 3.57zM3.5 18.59c1.94 0 3.52-1.6 3.52-3.57a3.54 3.54 0 00-3.51-3.57c-1.94 0-3.51 1.6-3.51 3.57a3.54 3.54 0 003.5 3.57zM14.86 18.59c1.94 0 3.51-1.6 3.51-3.57a3.54 3.54 0 00-3.5-3.57c-1.94 0-3.52 1.6-3.52 3.57a3.54 3.54 0 003.51 3.57zM26.4 18.59c1.94 0 3.5-1.6 3.5-3.57a3.54 3.54 0 00-3.5-3.57c-1.93 0-3.5 1.6-3.5 3.57a3.54 3.54 0 003.5 3.57zM3.59 22.86c-1.94 0-3.51 1.6-3.51 3.57A3.55 3.55 0 003.58 30c1.94 0 3.52-1.6 3.52-3.57a3.54 3.54 0 00-3.51-3.57zM14.94 22.86c-1.93 0-3.5 1.6-3.5 3.57a3.54 3.54 0 003.5 3.57c1.94 0 3.51-1.6 3.51-3.57a3.54 3.54 0 00-3.5-3.57zM26.48 22.86c-1.93 0-3.5 1.6-3.5 3.57a3.54 3.54 0 003.5 3.57c1.94 0 3.5-1.6 3.5-3.57a3.54 3.54 0 00-3.5-3.57z" fill="#1B58B1"/>
</svg>