<svg width="19" height="19" viewBox="0 0 19 19" fill="none" xmlns="http://www.w3.org/2000/svg">
<path d="M3.60044 0C1.66596 0 0.0923462 1.6024 0.0923462 3.57203C0.0923462 5.54166 1.66531 7.14395 3.60044 7.14395C5.53557 7.14395 7.10854 5.54166 7.10854 3.57203C7.10854 1.6024 5.53481 0 3.60044 0Z" fill="#1B58B1"/>
<path d="M14.9543 0C13.0199 0 11.4462 1.6024 11.4462 3.57203C11.4462 5.54166 13.0199 7.14395 14.9543 7.14395C16.8888 7.14395 18.4627 5.54166 18.4627 3.57203C18.4627 1.6024 16.8895 0 14.9543 0Z" fill="#1B58B1"/>
<path d="M3.50875 18.5898C5.44312 18.5898 7.01717 16.9879 7.01717 15.0179C7.01717 13.0478 5.44312 11.4456 3.50875 11.4456C1.57437 11.4456 0 13.048 0 15.0179C0 16.9879 1.57437 18.5898 3.50875 18.5898Z" fill="#1B58B1"/>
<path d="M14.8626 18.5898C16.7967 18.5898 18.3707 16.9879 18.3707 15.0179C18.3707 13.0478 16.798 11.4456 14.8626 11.4456C12.9276 11.4456 11.3546 13.0478 11.3546 15.0179C11.3546 16.9879 12.9283 18.5898 14.8626 18.5898Z" fill="#1B58B1"/>
</svg>
