<svg width="30" height="8" viewBox="0 0 30 8" fill="none" xmlns="http://www.w3.org/2000/svg">
<path d="M28.9002 1.17157C30.3646 2.73366 30.3646 5.26634 28.9002 6.82843C27.4359 8.39052 25.0616 8.39052 23.5972 6.82843C22.1328 5.26634 22.1328 2.73366 23.5972 1.17157C25.0616 -0.390524 27.4359 -0.390524 28.9002 1.17157Z" fill="#1B58B1"/>
<path d="M17.6508 1.17157C19.1152 2.73366 19.1152 5.26634 17.6508 6.82843C16.1864 8.39052 13.8122 8.39052 12.3478 6.82843C10.8834 5.26634 10.8834 2.73366 12.3478 1.17157C13.8122 -0.390524 16.1864 -0.390524 17.6508 1.17157Z" fill="#1B58B1"/>
<path d="M6.40135 1.17157C7.86574 2.73366 7.86574 5.26634 6.40135 6.82843C4.93695 8.39052 2.56269 8.39052 1.09829 6.82843C-0.366098 5.26634 -0.366098 2.73366 1.09829 1.17157C2.56269 -0.390524 4.93695 -0.390524 6.40135 1.17157Z" fill="#1B58B1"/>
</svg>
