<svg width="20" height="15" viewBox="0 0 20 15" fill="none" xmlns="http://www.w3.org/2000/svg">
<path d="M19.8239 1.00488L13.7583 7.03141L19.8239 13.0579C19.9335 12.8288 20 12.5754 20 12.3048V1.75797C20 1.48738 19.9335 1.23406 19.8239 1.00488Z" fill="#1B58B1"/>
<path d="M18.2422 0H1.75782C1.48723 0 1.23391 0.0665235 1.00473 0.176172L8.75719 7.88957C9.44266 8.57504 10.5573 8.57504 11.2428 7.88957L18.9953 0.176172C18.7661 0.0665235 18.5128 0 18.2422 0Z" fill="#1B58B1"/>
<path d="M0.176172 1.00488C0.0665235 1.23406 0 1.48738 0 1.75797V12.3048C0 12.5754 0.0665235 12.8288 0.176172 13.0579L6.24176 7.03141L0.176172 1.00488Z" fill="#1B58B1"/>
<path d="M12.9297 7.85986L12.0714 8.71818C10.9292 9.86033 9.07075 9.86033 7.9286 8.71818L7.07032 7.85986L1.00473 13.8864C1.23391 13.996 1.48723 14.0626 1.75782 14.0626H18.2422C18.5128 14.0626 18.7661 13.996 18.9953 13.8864L12.9297 7.85986Z" fill="#1B58B1"/>
</svg>
