<svg width="16" height="16" viewBox="0 0 16 16" fill="none" xmlns="http://www.w3.org/2000/svg">
<path d="M14.9369 1.20473e-06H0.67246C0.420715 -0.000474686 0.190068 0.140071 0.0750612 0.363897C-0.0415314 0.590737 -0.0210682 0.863897 0.127885 1.07107L5.35377 8.4329C5.35552 8.43544 5.35742 8.43782 5.35917 8.44036C5.54905 8.6967 5.65184 9.0073 5.65231 9.3263V15.3284C5.6512 15.506 5.721 15.6769 5.84616 15.803C5.97148 15.9289 6.14184 16 6.31951 16C6.40977 15.9998 6.49924 15.9819 6.58267 15.9472L9.51922 14.8276C9.78223 14.7471 9.95688 14.4989 9.95688 14.2V9.3263C9.95736 9.0073 10.0601 8.6967 10.2499 8.44036C10.2516 8.43782 10.2535 8.43544 10.2553 8.4329L15.4813 1.07091C15.6303 0.863897 15.6507 0.590896 15.5341 0.364056C15.4193 0.140071 15.1885 -0.000474686 14.9369 1.20473e-06Z" fill="#1B58B1"/>
</svg>
