<svg width="30" height="30" viewBox="0 0 30 30" fill="none" xmlns="http://www.w3.org/2000/svg">
<path d="M29.6582 28.0089L22.3368 20.6876C24.1567 18.4992 25.2531 15.6889 25.2531 12.627C25.2531 5.66442 19.5888 0 12.6266 0C5.66425 0 0 5.66442 0 12.627C0 19.589 5.66425 25.253 12.6266 25.253C15.6884 25.253 18.4988 24.1567 20.6872 22.3369L28.0088 29.6583C28.2365 29.8862 28.5351 30 28.8335 30C29.132 30 29.4306 29.8862 29.6584 29.6583C30.1139 29.2028 30.1139 28.4644 29.6582 28.0089ZM2.33276 12.627C2.33276 6.95071 6.95053 2.33277 12.6266 2.33277C18.3025 2.33277 22.9201 6.95071 22.9201 12.627C22.9201 18.3027 18.3025 22.9202 12.6266 22.9202C6.95053 22.9202 2.33276 18.3027 2.33276 12.627Z" fill="#1B58B1"/>
</svg>
