<svg width="16" height="16" viewBox="0 0 16 16" fill="none" xmlns="http://www.w3.org/2000/svg">
<path d="M10.2928 13.7144H8.00711C7.92374 13.7144 7.85535 13.7411 7.80174 13.7948C7.7483 13.8483 7.72144 13.9168 7.72144 14.0001V15.7143C7.72144 15.7979 7.74817 15.8661 7.80174 15.9198C7.85538 15.9733 7.92374 16.0001 8.00711 16.0001H10.2928C10.3761 16.0001 10.4446 15.9733 10.498 15.9198C10.5517 15.8661 10.5782 15.7979 10.5782 15.7143V14.0001C10.5782 13.9168 10.5517 13.8483 10.498 13.7948C10.4446 13.7411 10.3761 13.7144 10.2928 13.7144Z" fill="#1B58B1"/>
<path d="M6.007 12.5714H4.29271V0.285709C4.29271 0.202429 4.266 0.133848 4.2124 0.0803401C4.1588 0.0268634 4.09041 0 4.007 0H2.29268C2.2094 0 2.14082 0.0267383 2.08732 0.0803088C2.03387 0.133942 2.00701 0.202429 2.00701 0.285678V12.5714H0.292689C0.161843 12.5714 0.0725274 12.6309 0.0248675 12.7499C-0.0228236 12.8631 -0.00187079 12.9672 0.0873195 13.0625L2.94444 15.9198C3.00993 15.9731 3.07832 15.9999 3.14981 15.9999C3.22718 15.9999 3.2957 15.9731 3.35518 15.9198L6.20339 13.0715C6.263 13.0002 6.29271 12.9285 6.29271 12.8574C6.29271 12.7738 6.26584 12.7055 6.2124 12.6515C6.15883 12.5982 6.09043 12.5714 6.007 12.5714Z" fill="#1B58B1"/>
<path d="M12.007 9.14307H8.00702C7.92365 9.14307 7.85525 9.16981 7.80165 9.22331C7.74818 9.27682 7.72134 9.34531 7.72134 9.42856V11.143C7.72134 11.2263 7.74808 11.2948 7.80165 11.3483C7.85525 11.4018 7.92365 11.4285 8.00702 11.4285H12.007C12.0904 11.4285 12.1588 11.4018 12.2123 11.3483C12.2659 11.2948 12.2927 11.2263 12.2927 11.143V9.42856C12.2927 9.34531 12.2659 9.27679 12.2123 9.22331C12.1589 9.16984 12.0904 9.14307 12.007 9.14307Z" fill="#1B58B1"/>
<path d="M15.641 0.0803088C15.5874 0.0268634 15.519 0 15.4356 0H8.00711C7.92374 0 7.85535 0.0267383 7.80174 0.0803088C7.7483 0.133942 7.72144 0.202429 7.72144 0.285678V2C7.72144 2.08337 7.74817 2.15176 7.80174 2.20536C7.85538 2.25881 7.92374 2.28567 8.00711 2.28567H15.4356C15.519 2.28567 15.5874 2.25893 15.641 2.20536C15.6945 2.15176 15.7213 2.08337 15.7213 2V0.285709C15.7214 0.202429 15.6945 0.133817 15.641 0.0803088Z" fill="#1B58B1"/>
<path d="M13.7214 4.57153H8.00702C7.92365 4.57153 7.85525 4.59827 7.80165 4.6519C7.74818 4.70548 7.72134 4.77387 7.72134 4.85727V6.57153C7.72134 6.65493 7.74808 6.72333 7.80165 6.7769C7.85525 6.83041 7.92365 6.85727 8.00702 6.85727H13.7214C13.8047 6.85727 13.8732 6.83053 13.9269 6.7769C13.9803 6.72333 14.007 6.65493 14.007 6.57153V4.85727C14.007 4.77387 13.9803 4.70535 13.9269 4.6519C13.873 4.5984 13.8045 4.57153 13.7214 4.57153Z" fill="#1B58B1"/>
</svg>
